<?xml version="1.0" encoding="utf-8"?>
<!-- Generator: Adobe Illustrator 16.0.0, SVG Export Plug-In . SVG Version: 6.00 Build 0)  -->
<!DOCTYPE svg PUBLIC "-//W3C//DTD SVG 1.1//EN" "http://www.w3.org/Graphics/SVG/1.1/DTD/svg11.dtd">
<svg version="1.1" id="Layer_1" xmlns="http://www.w3.org/2000/svg" xmlns:xlink="http://www.w3.org/1999/xlink" x="0px" y="0px"
	 width="57.674px" height="51.156px" viewBox="13.163 16.422 57.674 51.156" enable-background="new 13.163 16.422 57.674 51.156"
	 xml:space="preserve">
<g>
	<path fill="#FFFFFF" d="M43.5,28.999c-0.584,3.573,1.086,6.769,1.922,10.07c2.305,9.095,4.803,18.142,7.262,27.199
		c0.213,0.789,0.147,1.184-0.716,1.291c-0.247,0.029-0.497,0.062-0.552-0.191c-0.211-0.996-1.119-1.081-1.814-1.406
		c-2.238-1.045-4.506-2.029-6.742-3.08c-0.542-0.255-0.98-0.255-1.52-0.005c-2.484,1.155-4.986,2.274-7.481,3.405
		c-0.327,0.146-0.807,0.222-0.874,0.57c-0.164,0.85-0.655,0.791-1.249,0.582c-0.906-0.317-0.275-0.959-0.175-1.341
		c2.42-9.159,4.886-18.306,7.346-27.454c0.651-2.428,1.316-4.854,1.966-7.282c0.158-0.597,0.305-1.149-0.087-1.786
		c-0.35-0.565-0.182-1.248,0.383-1.696c0.438-0.347,0.939-0.502,1.508-0.25C43.273,27.89,43.559,28.354,43.5,28.999z M42.807,36.21
		c-0.025-0.104-0.008-0.117,0.053-0.038c-0.03,0.003-0.063,0.007-0.098,0.011c0.055-0.144,0.137-0.29-0.017-0.419
		c-0.015-0.012-0.093,0.018-0.104,0.044C42.561,35.996,42.744,36.078,42.807,36.21z M41.732,36.606
		c0.206,0.109,0.43,0.171,0.618,0.004c0.112-0.1,0.036-0.259-0.092-0.304c-0.292-0.101-0.509-0.044-0.496,0.333l-0.039,0.002
		L41.732,36.606z M42.337,34.478c-0.209,0.02-0.449,0.014-0.425,0.322c0.004,0.049,0.118,0.127,0.184,0.128
		c0.351,0.001,0.117-0.355,0.279-0.478c-0.102-0.029-0.099-0.043,0.007-0.042C42.366,34.431,42.353,34.454,42.337,34.478z
		 M40.492,39.736c0.279-0.286,0.564-0.565,0.837-0.858c0.304-0.329-0.047-0.456-0.216-0.621c-0.293-0.285-0.442-0.131-0.545,0.189
		c-0.134,0.421-0.349,0.834-0.045,1.269c-0.01-0.018-0.019-0.036-0.029-0.055C40.493,39.685,40.493,39.711,40.492,39.736z
		 M48.984,59.475c-0.041,0.015-0.086,0.027-0.125,0.047c-1.799,0.812-3.602,1.619-5.396,2.443c-0.513,0.235-0.104,0.387,0.089,0.475
		c2.243,1.027,4.489,2.049,6.741,3.059c0.38,0.17,0.597,0.121,0.451-0.402c-0.479-1.729-0.931-3.466-1.396-5.199
		C49.299,59.7,49.328,59.422,48.984,59.475z M41.01,62.198C40.892,62.1,40.811,62,40.706,61.952
		c-1.747-0.797-3.501-1.579-5.243-2.388c-0.531-0.246-0.613,0.106-0.708,0.459c-0.444,1.639-0.884,3.278-1.317,4.92
		c-0.159,0.604,0.053,0.727,0.607,0.474c2.155-0.981,4.319-1.944,6.478-2.92C40.684,62.424,40.826,62.312,41.01,62.198z
		 M42.161,58.169c0-0.002,0-0.005,0-0.007c1.662,0,3.323,0.002,4.985-0.005c0.162-0.001,0.434-0.021,0.47-0.108
		c0.129-0.316-0.204-0.328-0.376-0.419c-1.547-0.813-3.104-1.606-4.645-2.43c-0.438-0.234-0.801-0.257-1.255-0.003
		c-1.485,0.833-2.998,1.613-4.495,2.426c-0.171,0.092-0.522,0.105-0.402,0.412c0.092,0.236,0.393,0.128,0.598,0.129
		C38.748,58.173,40.455,58.169,42.161,58.169z M42.004,58.812c-1.749,0-3.498-0.004-5.247,0.006c-0.195,0-0.466-0.129-0.565,0.137
		c-0.021,0.061,0.203,0.261,0.348,0.327c1.71,0.778,3.43,1.534,5.136,2.319c0.327,0.15,0.58,0.105,0.885-0.033
		c1.668-0.762,3.346-1.506,5.02-2.256c0.16-0.071,0.395-0.155,0.355-0.332c-0.062-0.306-0.363-0.156-0.551-0.156
		C45.591,58.811,43.796,58.816,42.004,58.812z M48.581,56.979c-0.388-1.459-0.783-2.979-1.194-4.494
		c-0.1-0.362-0.361-0.332-0.633-0.188c-1.146,0.615-2.291,1.236-3.439,1.848c-0.398,0.211-0.465,0.396-0.019,0.627
		c1.597,0.823,3.188,1.655,4.778,2.485C48.334,57.393,48.587,57.532,48.581,56.979z M35.802,57.354
		c0.06-0.028,0.101-0.047,0.139-0.067c1.574-0.845,3.15-1.687,4.721-2.539c0.374-0.203,0.249-0.406-0.05-0.562
		c-1.069-0.559-2.146-1.099-3.207-1.672c-0.363-0.195-0.584-0.156-0.693,0.246c-0.374,1.379-0.746,2.758-1.107,4.139
		C35.555,57.083,35.448,57.345,35.802,57.354z M42.012,51.09c0-0.004,0-0.008,0-0.013c1.166,0,2.333,0.004,3.5-0.005
		c0.125-0.002,0.316-0.034,0.357-0.114c0.119-0.229-0.121-0.272-0.258-0.354c-1.045-0.607-2.096-1.207-3.136-1.823
		c-0.291-0.173-0.532-0.253-0.858-0.041c-0.975,0.638-1.973,1.241-2.958,1.862c-0.135,0.086-0.382,0.143-0.239,0.375
		c0.05,0.082,0.237,0.107,0.362,0.108C39.858,51.094,40.936,51.09,42.012,51.09z M41.888,51.771c-1.126,0-2.251-0.004-3.378,0.006
		c-0.148,0.002-0.386-0.106-0.427,0.146c-0.013,0.079,0.136,0.22,0.241,0.274c1.073,0.564,2.152,1.117,3.23,1.674
		c0.259,0.133,0.523,0.127,0.775-0.007c1.034-0.546,2.063-1.095,3.093-1.653c0.107-0.059,0.26-0.188,0.253-0.275
		c-0.016-0.277-0.268-0.158-0.411-0.16C44.139,51.764,43.014,51.77,41.888,51.771z M45.521,46.395
		c-0.153-0.016-2.531,1.484-2.588,1.614c-0.113,0.263,0.139,0.3,0.254,0.368c0.992,0.592,1.996,1.166,2.998,1.743
		c0.323,0.187,0.608,0.285,0.461-0.286c-0.271-1.031-0.545-2.062-0.819-3.091C45.783,46.578,45.768,46.385,45.521,46.395z
		 M41.098,48.162c0-0.035,0.007-0.07,0-0.104c-0.037-0.17-2.366-1.455-2.547-1.412c-0.209,0.054-0.255,0.225-0.302,0.396
		c-0.26,0.947-0.525,1.893-0.771,2.842c-0.048,0.184-0.077,0.586,0.23,0.414c1.129-0.63,2.208-1.348,3.305-2.035
		C41.048,48.242,41.071,48.195,41.098,48.162z M42.029,45.264c0.134,0,0.269,0.008,0.401-0.002c0.655-0.048,1.318,0.105,1.964-0.094
		c-0.347-0.662-1.08-0.841-1.601-1.288c-1.281-1.103-1.829,0.435-2.707,0.763c-0.201,0.075-0.585,0.474-0.439,0.504
		c0.64,0.137,1.317,0.094,1.98,0.113C41.763,45.266,41.896,45.262,42.029,45.264z M44.184,46.191c-0.039-0.252-0.256-0.2-0.41-0.203
		c-0.758-0.016-1.517-0.043-2.272-0.014c-0.647,0.023-1.318-0.188-1.943,0.15c0.396,0.561,1.055,0.734,1.598,1.075
		c0.666,0.417,2.679-0.207,2.987-0.89C44.157,46.273,44.167,46.234,44.184,46.191z M44.083,41.874
		c-0.3,0.302-0.981,0.422-1.198,0.969c-0.154,0.392,0.401,0.505,0.665,0.683c0.495,0.33,0.925,0.807,1.568,0.854
		c0.079,0.006-0.438-2.217-0.585-2.394C44.452,41.89,44.395,41.748,44.083,41.874z M42.03,40.605c0.224,0,0.446,0.019,0.666-0.005
		c0.246-0.026,0.593,0.141,0.714-0.153c0.126-0.306-0.244-0.411-0.413-0.591c-0.09-0.097-0.201-0.174-0.297-0.266
		c-0.323-0.312-0.643-0.682-1.095-0.19c-0.319,0.345-1.02,0.563-0.897,1.023c0.108,0.405,0.777,0.107,1.19,0.182
		C41.94,40.612,41.986,40.605,42.03,40.605z M41.156,42.934c-0.235-0.449-0.693-0.669-1.119-0.875
		c-0.722-0.351-0.577,0.45-0.605,0.653c-0.075,0.529-0.594,1.014-0.224,1.585C39.258,44.371,41.144,43.075,41.156,42.934z
		 M42.068,41.239c-0.268,0-0.536-0.012-0.803,0.004c-0.207,0.012-0.517-0.105-0.599,0.108c-0.13,0.336,0.262,0.4,0.447,0.558
		c0.169,0.143,0.356,0.279,0.559,0.359c0.632,0.25,0.952-0.333,1.4-0.564c0.144-0.075,0.328-0.346,0.186-0.391
		c-0.328-0.103-0.701-0.058-1.057-0.073C42.158,41.238,42.113,41.24,42.068,41.239z M43.337,38.028
		c-0.325,0.165-0.737,0.395-0.675,0.613c0.133,0.459,0.584,0.762,1.018,0.952c0.285,0.126,0.213-0.239,0.164-0.32
		C43.611,38.886,43.795,38.311,43.337,38.028z M42.04,37.432c-0.207,0.09-0.611-0.183-0.607,0.235
		c0.003,0.244,0.309,0.464,0.572,0.494c0.351,0.038,0.66-0.261,0.659-0.529C42.664,37.266,42.254,37.518,42.04,37.432z
		 M42.152,33.181c-0.033,0.027-0.096,0.057-0.093,0.079c0.009,0.077,0.04,0.151,0.063,0.227c0.031-0.027,0.093-0.057,0.09-0.081
		C42.205,33.329,42.175,33.256,42.152,33.181z M41.347,35.704c-0.033,0.083-0.069,0.156-0.086,0.234
		c-0.003,0.019,0.062,0.052,0.095,0.078c0.041-0.055,0.114-0.108,0.116-0.163C41.473,35.806,41.393,35.756,41.347,35.704z
		 M42.139,35.312l-0.045,0.083l0.084,0.003L42.139,35.312z"/>
	<path fill="#FFFFFF" d="M41.293,16.422c6.747,0.031,11.719,4.02,13.014,9.79c1.262,5.625-1.543,11.496-6.668,13.96
		c-0.974,0.469-1.146,0.407-1.246-0.353c-0.082-0.615,0.449-0.563,0.742-0.716c2.881-1.516,4.848-3.793,5.803-6.915
		c2.209-7.209-3.23-14.558-10.767-14.557c-5.381,0-9.902,3.534-11.133,8.7c-1.221,5.127,1.269,10.381,6.059,12.782
		c0.139,0.07,0.274,0.159,0.422,0.202c0.612,0.177,0.521,0.568,0.341,1.014c-0.248,0.612-0.603,0.154-0.846,0.053
		c-7.35-3.046-9.828-12.729-4.866-19.07C34.668,18.088,38.01,16.465,41.293,16.422z"/>
	<path fill="#FFFFFF" d="M33.498,28.861c0.089,3.37,1.556,5.878,4.41,7.58c0.168,0.1,0.338,0.199,0.518,0.274
		c0.357,0.149,0.307,0.398,0.193,0.675c-0.17,0.414-0.42,0.208-0.66,0.09c-2.607-1.291-4.34-3.346-5.059-6.147
		c-1.355-5.275,1.792-10.368,7.124-11.665c4.951-1.204,10.035,1.987,11.302,7.093c0.997,4.02-0.911,8.412-4.564,10.423
		c-0.279,0.153-0.648,0.736-1.029,0.134c-0.396-0.621,0.235-0.695,0.562-0.89c2.396-1.433,3.892-3.49,4.267-6.272
		c0.477-3.515-0.795-6.347-3.694-8.318c-2.913-1.981-6.043-2.054-9.094-0.302C34.971,23.143,33.609,25.68,33.498,28.861z"/>
	<path fill="#FFFFFF" d="M48.908,28.956c-0.002,2.32-0.979,4.153-2.827,5.52c-0.276,0.206-0.663,0.775-1.008,0.291
		c-0.341-0.479,0.341-0.583,0.602-0.778c2.425-1.823,3.267-4.822,2.081-7.524c-1.052-2.398-3.429-3.862-6.006-3.697
		c-2.688,0.172-4.87,1.896-5.608,4.43c-0.735,2.527,0.191,5.187,2.32,6.78c0.312,0.234,1.147,0.345,0.689,0.929
		c-0.271,0.348-0.797-0.226-1.138-0.475c-2.604-1.908-3.497-5.339-2.186-8.286c1.3-2.92,4.52-4.579,7.641-3.939
		C46.65,22.858,48.906,25.659,48.908,28.956z"/>
	<path fill="#FFFFFF" d="M37.766,28.916c0.016-1.959,1.327-3.687,3.17-4.169c1.91-0.501,3.875,0.286,4.865,1.951
		c1.028,1.728,0.775,3.867-0.641,5.288c-0.194,0.194-0.461,0.601-0.705,0.364c-0.255-0.248,0.205-0.422,0.369-0.601
		c1.611-1.746,1.595-4.093-0.057-5.661c-1.533-1.456-3.896-1.446-5.406,0.024c-1.592,1.549-1.579,3.998,0.034,5.669
		c0.108,0.112,0.25,0.195,0.346,0.316c0.062,0.079,0.127,0.237,0.089,0.298c-0.119,0.198-0.274,0.061-0.386-0.029
		C38.344,31.48,37.748,30.345,37.766,28.916z"/>
	<path fill="none" d="M48.986,59.473c0.342-0.051,0.312,0.228,0.365,0.422c0.463,1.734,0.914,3.473,1.395,5.2
		c0.146,0.522-0.071,0.572-0.451,0.402c-2.252-1.011-4.498-2.03-6.74-3.06c-0.193-0.088-0.603-0.238-0.09-0.474
		c1.794-0.823,3.596-1.631,5.395-2.444C48.898,59.502,48.943,59.489,48.986,59.473z"/>
	<path fill="none" d="M41.01,62.198c-0.184,0.114-0.326,0.227-0.487,0.299c-2.158,0.976-4.322,1.938-6.478,2.92
		c-0.555,0.253-0.767,0.131-0.607-0.474c0.434-1.642,0.873-3.281,1.317-4.92c0.095-0.353,0.177-0.705,0.708-0.459
		c1.742,0.809,3.496,1.59,5.243,2.388C40.811,62,40.892,62.1,41.01,62.198z"/>
	<path fill="none" d="M42.161,58.169c-1.706,0-3.413,0.004-5.119-0.006c-0.205-0.001-0.506,0.108-0.598-0.129
		c-0.12-0.306,0.231-0.319,0.402-0.412c1.497-0.812,3.01-1.595,4.495-2.427c0.454-0.254,0.816-0.229,1.255,0.004
		c1.539,0.822,3.098,1.617,4.645,2.43c0.172,0.091,0.505,0.104,0.376,0.419c-0.036,0.087-0.308,0.106-0.47,0.108
		c-1.662,0.007-3.323,0.005-4.985,0.005C42.161,58.164,42.161,58.167,42.161,58.169z"/>
	<path fill="none" d="M42.004,58.814c1.792,0,3.587-0.004,5.38,0.01c0.187,0,0.487-0.149,0.552,0.156
		c0.037,0.177-0.197,0.261-0.356,0.332c-1.675,0.75-3.351,1.494-5.019,2.256c-0.306,0.139-0.559,0.185-0.886,0.033
		c-1.706-0.785-3.426-1.541-5.136-2.319c-0.145-0.066-0.369-0.267-0.348-0.327c0.1-0.266,0.37-0.135,0.565-0.137
		C38.506,58.809,40.255,58.812,42.004,58.814z"/>
	<path fill="none" d="M48.581,56.979c0.006,0.554-0.247,0.414-0.507,0.277c-1.592-0.83-3.184-1.662-4.778-2.486
		c-0.446-0.23-0.381-0.416,0.019-0.627c1.148-0.609,2.293-1.23,3.439-1.847c0.271-0.146,0.533-0.175,0.633,0.188
		C47.798,54,48.193,55.52,48.581,56.979z"/>
	<path fill="none" d="M35.802,57.354c-0.354-0.009-0.247-0.271-0.198-0.455c0.361-1.381,0.733-2.76,1.107-4.139
		c0.109-0.402,0.33-0.441,0.693-0.246c1.061,0.574,2.138,1.114,3.207,1.672c0.299,0.154,0.424,0.358,0.05,0.562
		c-1.57,0.853-3.146,1.694-4.721,2.539C35.902,57.307,35.861,57.325,35.802,57.354z"/>
	<path fill="none" d="M42.012,51.09c-1.076,0-2.153,0.004-3.229-0.004c-0.125-0.001-0.312-0.027-0.362-0.107
		c-0.143-0.232,0.104-0.291,0.239-0.375c0.985-0.623,1.983-1.226,2.958-1.863c0.326-0.213,0.567-0.131,0.858,0.041
		c1.04,0.617,2.092,1.215,3.135,1.824c0.138,0.08,0.377,0.123,0.259,0.354c-0.041,0.08-0.233,0.113-0.356,0.114
		c-1.168,0.009-2.334,0.005-3.5,0.005C42.012,51.082,42.012,51.085,42.012,51.09z"/>
	<path fill="none" d="M41.888,51.771c1.125-0.002,2.25-0.008,3.377,0.006c0.144,0,0.396-0.119,0.41,0.16
		c0.006,0.088-0.146,0.217-0.253,0.274c-1.028,0.558-2.06,1.106-3.093,1.653c-0.252,0.134-0.517,0.14-0.775,0.007
		c-1.078-0.556-2.157-1.108-3.23-1.674c-0.105-0.056-0.254-0.196-0.241-0.274c0.041-0.252,0.278-0.144,0.427-0.145
		C39.637,51.768,40.762,51.771,41.888,51.771z"/>
	<path fill="none" d="M45.521,46.393c0.244-0.008,0.262,0.186,0.305,0.35c0.273,1.029,0.55,2.06,0.818,3.091
		c0.148,0.571-0.137,0.472-0.461,0.286c-1-0.577-2.006-1.15-2.998-1.743c-0.115-0.067-0.365-0.104-0.252-0.368
		C42.988,47.879,45.367,46.379,45.521,46.393z"/>
	<path fill="none" d="M41.098,48.162c-0.026,0.033-0.05,0.08-0.084,0.102c-1.097,0.688-2.176,1.406-3.305,2.036
		c-0.308,0.173-0.278-0.229-0.23-0.414c0.245-0.95,0.511-1.895,0.771-2.842c0.047-0.173,0.093-0.344,0.302-0.396
		c0.181-0.045,2.51,1.24,2.547,1.412C41.104,48.092,41.098,48.127,41.098,48.162z"/>
	<path fill="none" d="M42.029,45.264c-0.133-0.002-0.267,0.002-0.4-0.002c-0.663-0.02-1.341,0.022-1.98-0.113
		c-0.146-0.03,0.238-0.43,0.439-0.504c0.878-0.328,1.426-1.864,2.707-0.763c0.52,0.447,1.254,0.626,1.602,1.288
		c-0.646,0.199-1.311,0.045-1.965,0.094C42.298,45.271,42.163,45.264,42.029,45.264z"/>
	<path fill="none" d="M44.184,46.191c-0.017,0.043-0.025,0.082-0.043,0.119c-0.308,0.683-2.32,1.306-2.986,0.89
		c-0.543-0.341-1.202-0.515-1.598-1.075c0.625-0.338,1.296-0.127,1.943-0.15c0.757-0.029,1.516-0.002,2.271,0.014
		C43.928,45.991,44.145,45.939,44.184,46.191z"/>
	<path fill="none" d="M44.083,41.874c0.312-0.125,0.369,0.016,0.45,0.113c0.146,0.176,0.664,2.399,0.585,2.394
		c-0.646-0.049-1.073-0.525-1.568-0.855c-0.264-0.176-0.819-0.289-0.665-0.682C43.102,42.296,43.783,42.175,44.083,41.874z"/>
	<path fill="none" d="M42.03,40.605c-0.044,0-0.09,0.006-0.133-0.001c-0.413-0.074-1.082,0.223-1.19-0.182
		c-0.122-0.459,0.578-0.678,0.897-1.023c0.452-0.491,0.771-0.121,1.095,0.19c0.096,0.092,0.207,0.168,0.297,0.266
		c0.169,0.18,0.539,0.286,0.413,0.591c-0.121,0.293-0.468,0.127-0.714,0.153C42.477,40.624,42.254,40.605,42.03,40.605z"/>
	<path fill="none" d="M41.156,42.934c-0.013,0.142-1.898,1.438-1.948,1.362c-0.37-0.571,0.148-1.057,0.224-1.585
		c0.028-0.203-0.116-1.004,0.605-0.653C40.463,42.264,40.921,42.485,41.156,42.934z"/>
	<path fill="none" d="M42.068,41.24c0.045,0,0.09-0.002,0.134,0c0.354,0.015,0.729-0.03,1.057,0.073
		c0.144,0.045-0.042,0.316-0.186,0.391c-0.448,0.232-0.769,0.815-1.4,0.564c-0.202-0.081-0.39-0.217-0.559-0.359
		c-0.186-0.157-0.577-0.221-0.447-0.558c0.082-0.214,0.392-0.096,0.599-0.108C41.532,41.228,41.801,41.239,42.068,41.24z"/>
	<path fill="none" d="M43.337,38.028c0.458,0.283,0.274,0.858,0.507,1.246c0.049,0.081,0.121,0.446-0.164,0.32
		c-0.434-0.19-0.885-0.493-1.018-0.952C42.6,38.422,43.012,38.192,43.337,38.028z"/>
	<path fill="none" d="M40.523,39.715c-0.304-0.435-0.089-0.848,0.045-1.269c0.103-0.321,0.252-0.474,0.545-0.189
		c0.169,0.165,0.52,0.292,0.216,0.621c-0.272,0.293-0.558,0.572-0.837,0.858L40.523,39.715z"/>
	<path fill="none" d="M42.04,37.432c0.214,0.086,0.624-0.166,0.624,0.2c0.001,0.268-0.309,0.567-0.659,0.529
		c-0.264-0.029-0.569-0.25-0.572-0.494C41.429,37.249,41.833,37.521,42.04,37.432z"/>
	<path fill="none" d="M42.375,34.45c-0.162,0.121,0.071,0.479-0.279,0.478c-0.065,0-0.18-0.079-0.184-0.128
		c-0.024-0.309,0.216-0.302,0.425-0.322L42.375,34.45z"/>
	<path fill="none" d="M41.763,36.639c-0.013-0.376,0.204-0.433,0.496-0.333c0.128,0.045,0.204,0.204,0.092,0.304
		c-0.188,0.167-0.412,0.104-0.618-0.004L41.763,36.639z"/>
	<path fill="none" d="M42.152,33.181c0.022,0.075,0.053,0.148,0.061,0.225c0.003,0.023-0.059,0.054-0.09,0.081
		c-0.023-0.076-0.055-0.149-0.063-0.227C42.057,33.237,42.119,33.208,42.152,33.181z"/>
	<path fill="none" d="M41.347,35.704c0.046,0.052,0.126,0.102,0.125,0.149c-0.002,0.055-0.075,0.108-0.116,0.163
		c-0.033-0.026-0.098-0.059-0.095-0.078C41.277,35.86,41.313,35.787,41.347,35.704z"/>
	<path fill="none" d="M42.807,36.21c-0.062-0.132-0.246-0.215-0.166-0.402c0.012-0.026,0.09-0.056,0.104-0.044
		c0.153,0.13,0.069,0.276,0.017,0.419L42.807,36.21z"/>
	<path fill="none" d="M42.337,34.478c0.016-0.023,0.029-0.047,0.045-0.069c-0.105-0.001-0.108,0.013-0.007,0.042L42.337,34.478z"/>
	<polygon fill="none" points="42.139,35.312 42.178,35.398 42.094,35.395 	"/>
	<path fill="none" d="M40.492,39.736c0.001-0.025,0.001-0.051,0.002-0.077c0.011,0.019,0.02,0.037,0.029,0.055L40.492,39.736z"/>
	<path fill="none" d="M42.762,36.184c0.033-0.004,0.066-0.008,0.098-0.011c-0.061-0.08-0.078-0.067-0.053,0.038L42.762,36.184z"/>
	<polygon fill="none" points="41.732,36.606 41.724,36.641 41.763,36.639 	"/>
	<polygon fill="#FFFFFF" points="28.558,27.21 28.558,31.419 24.742,29.841 24.742,34.314 13.163,25.762 20.663,27.735 
		20.663,24.314 	"/>
	<polygon fill="#FFFFFF" points="55.443,27.21 55.443,31.419 59.259,29.841 59.259,34.314 70.837,25.762 63.337,27.735 
		63.337,24.314 	"/>
</g>
</svg>
