<svg xmlns="http://www.w3.org/2000/svg" width="323.455" height="47.066" viewBox="0 0 323.455 47.066"><path d="M0 0v20.164h19.766V0H0zm12.8 13.062H6.96V7.105h5.84v5.957zm28.98 13.563h8.927c3.363 0 4.98 1.484 4.98 4.207 0 3.556-2.582 4.398-5.56 4.398H41.78v-8.605zM27.56 46.223h26.187c8.152 0 16.168-4.79 16.168-14.035 0-6.79-3.88-10.086-8.016-11.513 3.43-1.87 5.684-4.397 5.684-9.05C67.584 6.9 65.004.05 52.844.05H27.56v46.173zM41.78 11.04h7.505c2.91 0 4.848.84 4.848 3.17 0 2.975-1.875 3.817-4.848 3.817H41.78V11.04zm41.767 14.616c.586-3.62 2.78-5.625 6.602-5.625 3.293 0 5.62 2.52 5.62 5.63H83.548zm24.512 6.66c0-13.06-5.758-20.5-19.078-20.5-10.613 0-17.723 7.957-17.723 17.723 0 11.184 8.086 17.523 18.824 17.523 7.625 0 14.68-3.363 17.262-10.61h-11.96c-1.036 1.618-3.302 2.393-5.376 2.393-4 0-6.2-2.72-6.525-6.532l24.574-.002zm16.05-29.878H111.3V12.66h-5.69v7.887h5.69V36.59c0 9.18 6.016 10.02 11.45 10.02 2.714 0 5.628-.386 8.214-.386v-9.707c-.973.137-1.94.198-2.914.198-3.23 0-3.945-1.358-3.945-4.46v-11.71h6.857V12.66h-6.86V2.438zm8.98 43.785h12.803v-17.72c0-5.37 2.91-6.473 5.113-6.473 3.746 0 4.2 2.72 4.2 6.598v17.595h12.81V23.195c0-7.695-5.505-11.38-11.522-11.38-5.426 0-8.277 1.88-10.477 4.462h-.127V.05h-12.8v46.173zm48.87-20.567c.58-3.62 2.784-5.625 6.602-5.625 3.3 0 5.62 2.52 5.62 5.63H181.96zm24.512 6.66c0-13.06-5.75-20.5-19.078-20.5-10.61 0-17.724 7.957-17.724 17.723 0 11.184 8.087 17.523 18.83 17.523 7.62 0 14.68-3.98 17.257-11.224H193.8c-1.03 1.617-3.3 3.005-5.374 3.005-4.004 0-6.207-2.72-6.526-6.53h24.574zm32.216-9.894c-.316-8.598-9.05-10.604-16.294-10.604-6.727 0-15.848 2.2-15.848 10.672 0 5.754 3.943 8.86 13.71 10.54 5.95 1.034 7.05 1.616 7.05 3.56 0 1.94-2.65 2.587-4.328 2.587-1.555 0-2.78-.395-3.43-.973-.973-.836-1.484-1.19-1.547-2.36h-12.22c.188 8.67 8.86 11.225 16.742 11.225 8.15 0 17.082-2.527 17.082-11.84 0-5.5-3.754-8.02-8.023-9.38-4.27-1.42-9.113-1.68-11.25-2.59-.707-.32-1.484-.77-1.484-1.745 0-2.195 2.066-2.582 3.88-2.582 1.034 0 2.073.323 2.84.97.848.58 1.425 1.42 1.495 2.52l11.63-.004zM276.45.05h-12.8v16.294h-.132c-1.938-2.848-5.37-4.526-9.184-4.526-11.254 0-14.293 9.574-14.293 17.46 0 8.41 4.59 17.79 14.1 17.79 6.275 0 8.21-2.396 9.83-4.535h.133v3.69h12.35V.053zm-12.347 29.36c0 4.004-1.035 8.34-5.62 8.34-4.595 0-5.634-4.336-5.634-8.34 0-3.945 1.035-8.28 5.63-8.28 4.582 0 5.62 4.335 5.62 8.28m36.52 4.848c-.196 3.492-2.454 5.234-5.37 5.234-2.32 0-4.01-1.547-4.01-3.094 0-2.27 1.487-2.984 4.332-3.625 1.754-.396 3.495-.844 5.047-1.62v3.105zm12.292-9.313c0-6.465.12-13.13-15.918-13.13-7.953 0-16.875 1.552-17.263 10.993h11.893c.07-1.418.853-3.427 4.79-3.427 2.077 0 4.206.845 4.206 3.11 0 2.136-1.75 2.65-3.49 2.976-6.536 1.228-18.945.836-18.945 11.45 0 7.046 5.358 10.15 11.832 10.15 4.145 0 8.082-.91 10.8-4.012h.13c-.066.907.125 2.268.453 3.17h13.064c-1.426-2.134-1.547-4.98-1.547-7.505V24.95zm3.738-7.068h-.973v-3.96h-1.487v-.84h3.903v.84h-1.44v3.96zm2.93 0h-.913v-4.8h1.523l.868 3.313.873-3.312h1.526v4.8h-.926V14.05l-1.044 3.827h-.873l-1.03-3.826.002 3.83z"/></svg>