<svg xmlns="http://www.w3.org/2000/svg" width="19.048" height="19.161" viewBox="0 0 19.048 19.161"><path fill="none" stroke="#231F20" stroke-width=".451" stroke-miterlimit="10" d="M0 0h19.048v19.16H0z"/><path d="M1.755 1.375H5.4c2.153 0 3.623 1.06 3.623 3.185v.026c0 2.162-1.492 3.313-3.68 3.313h-.88v2.43H1.755V1.374zm3.437 4.388c.695 0 1.157-.346 1.157-.985v-.026c0-.652-.43-.985-1.148-.985h-.74v1.996h.73zm4.342.114v-.025c0-2.674 1.887-4.67 4.305-4.67 1.78 0 2.984.96 3.67 2.33l-2.237 1.446c-.3-.64-.73-1.088-1.47-1.088-.914 0-1.517.883-1.517 1.958v.025c0 1.165.626 1.983 1.516 1.983.766 0 1.193-.46 1.53-1.126l2.232 1.395c-.683 1.33-1.816 2.418-3.83 2.418-2.246 0-4.2-1.87-4.2-4.646zm-7.897 9.695v-.012c0-1.19.85-2.076 1.986-2.076.616 0 1.116.228 1.507.602l-.675.9c-.235-.223-.498-.348-.796-.348-.47 0-.81.397-.81.938v.012c0 .563.355.95.858.95.206 0 .318-.034.41-.092v-.397h-.615v-.856h1.743v1.844c-.39.35-.937.595-1.59.595-1.12 0-2.02-.83-2.02-2.063zm5.33-2.032H8.16l1.52 4.01H8.37l-.19-.534H6.92l-.185.534H5.45l1.518-4.01zm.915 2.532l-.33-.967-.328.967h.658zm2.058-2.504h1.254l.77 1.4.774-1.4h1.255v3.98h-1.198v-1.973l-.83 1.416h-.02l-.828-1.414v1.974H9.94v-3.982zm4.58 0h3.07v1.093H15.7v.405h1.76v.962H15.7v.433h1.914v1.09h-3.096v-3.982zM1.64 11.793h15.97v.226H1.64z" fill="#231F20"/></svg>