<svg xmlns="http://www.w3.org/2000/svg" width="60.479" height="12.589" viewBox="0 0 60.479 12.589"><path d="M59.156 9.965h-.29v-.097h.685v.097h-.283v.774h-.11m.856 0l-.238-.71v.71h-.113v-.872h.16l.248.74.25-.74h.16v.87h-.115v-.707l-.24.71M45.952 2.98H40.88c-1.472 0-2.19.908-2.19 2.088v3.588c0 .73-.35 1.256-1.08 1.256h-4.77c-.03 0-.054.024-.054.054v.722c0 .03.024.055.054.055h5.32c1.472 0 2.192-.905 2.192-2.085V5.066c0-.73.347-1.258 1.077-1.258h4.52c.03 0 .053-.023.053-.053v-.72c0-.03-.022-.055-.052-.055m-14.985.002h-9.178c-.03 0-.054.024-.054.054v.722c0 .03.024.053.054.053h8.627c.73 0 1.077.53 1.077 1.26s-.344 1.256-1.075 1.256H23.59c-1.06 0-1.856.89-1.856 2.072v2.29c0 .03.025.056.054.056h1.557c.03 0 .055-.024.055-.055V8.395c0-.73.422-1.242 1.026-1.242h6.54c1.47 0 2.192-.904 2.192-2.084 0-1.18-.722-2.088-2.193-2.088m27.03 6.1h-1.612.057c-.03 0-.057-.024-.057-.055v-5.22c0-.802-.555-1.064-1.335-.584l-9.353 5.744c-.368.226-.49.48-.402.67.078.162.278.274.684.274l8.687.003c.025.002.044.02.05.042v.73c0 .032.024.058.055.058h1.56c.03 0 .055-.025.055-.057V9.97c0-.03.024-.057.054-.057h1.557c.03 0 .056-.025.056-.055v-.72c-.004-.03-.03-.054-.06-.054m-3.28-.06c0 .032-.024.058-.055.058h-7.283c-.06 0-.09-.014-.097-.036-.01-.033.01-.06.053-.09l7.247-4.46c.05-.03.133-.025.133.073v4.456z" fill="#231F20"/><g fill="#231F20"><path d="M6.1 0v11.746l2.658.843V2.735c0-.46.205-.77.54-.66.433.118.517.543.517 1.005v3.935c1.656.8 2.96 0 2.96-2.11 0-2.168-.763-3.13-3.013-3.902C8.876.706 7.232.21 6.1 0z"/><path d="M9.262 10.873l4.275-1.524c.484-.176.56-.42.165-.55-.394-.128-1.106-.09-1.593.082L9.26 9.887V8.29l.164-.056s.823-.292 1.98-.42c1.156-.126 2.574.017 3.687.44 1.255.395 1.395.978 1.077 1.38-.32.403-1.1.69-1.1.69L9.26 12.41v-1.537zm-8.037-.163C-.062 10.35-.277 9.596.31 9.16c.542-.403 1.463-.704 1.463-.704l3.81-1.354v1.542l-2.74.982c-.485.175-.56.42-.166.55.395.128 1.107.092 1.592-.084l1.313-.476v1.38c-.084.016-.176.03-.262.045-1.314.216-2.716.128-4.096-.33m13.583 1.235c0-.138.053-.268.152-.365.094-.1.224-.15.363-.15.137 0 .268.05.365.15.097.098.15.228.15.365 0 .287-.232.518-.517.518-.14 0-.27-.054-.364-.15-.098-.1-.15-.23-.15-.368zm.518.622c.166 0 .322-.064.44-.182.116-.118.18-.273.18-.44 0-.165-.063-.32-.18-.438-.118-.12-.274-.186-.44-.186-.345 0-.62.283-.62.625 0 .167.063.322.18.44.116.12.272.183.44.183"/><path d="M15.493 11.79c0 .038-.01.062-.03.078-.022.015-.053.022-.09.022h-.193v-.196h.204c.028 0 .05.004.067.013.03.014.044.04.044.082zm.137.446c-.008-.004-.017-.015-.02-.032-.002-.012-.005-.027-.007-.053l-.003-.086c-.002-.044-.01-.072-.025-.092-.01-.013-.024-.025-.04-.034.02-.014.04-.03.052-.05.02-.03.026-.063.026-.106 0-.082-.034-.14-.102-.17-.033-.017-.076-.023-.13-.023h-.32v.69h.12v-.285h.19c.032 0 .06.005.074.012.024.012.037.035.04.074l.005.11.003.057c0 .01.005.017.01.024l.005.01h.133v-.04l-.01-.003"/></g></svg>