<svg xmlns="http://www.w3.org/2000/svg" xmlns:xlink="http://www.w3.org/1999/xlink" width="63.553" height="12.64" viewBox="0 0 63.553 12.64"><path fill="#231F20" d="M40.655 10.21L38.23 6.918l-2.425 3.294h-1l2.918-3.98-2.663-3.615h.998l2.17 2.95 2.17-2.95h1L38.733 6.23l2.92 3.98m-19.906 0l-2.92-3.98 2.664-3.615h-.996l-2.172 2.95-2.17-2.95h-.995L17.82 6.23l-2.92 3.98h1l2.424-3.292 2.425 3.293"/><path fill="#231F20" d="M27.3 6.52c-.16-.137-.33-.24-.5-.317.552-.3.914-.865.914-1.52 0-.487-.18-2.067-2.47-2.067H22.16V5.89h-1.026c-.133.173-.435.59-.55.762h1.578v3.558h3.085c1.67 0 2.71-.85 2.71-2.217 0-.598-.226-1.106-.656-1.474zm-4.286-3.113h2.232c.604 0 1.616.15 1.616 1.207 0 .8-.59 1.274-1.616 1.274h-2.232v-2.48zm2.232 6.01h-2.232V6.654h2.232c.847 0 1.858.233 1.858 1.322 0 1.255-1.164 1.443-1.858 1.443zm6.72-6.98c-2.132 0-3.624 1.635-3.624 3.97 0 2.34 1.492 3.97 3.625 3.97 2.13 0 3.618-1.63 3.618-3.97 0-2.335-1.487-3.97-3.618-3.97zm0 7.138c-1.625 0-2.763-1.303-2.763-3.168 0-1.862 1.138-3.166 2.764-3.166 1.622 0 2.755 1.306 2.755 3.168 0 1.865-1.133 3.168-2.755 3.168z"/><defs><path id="a" d="M10.756 1.826c.008.006-.564-.49-2.722 1.664 1.317 1.56 3.94 5.432 3.198 6.8.877-1.084 1.403-2.465 1.403-3.968 0-1.76-.718-3.35-1.88-4.496 0 0 0-.002-.004-.006"/></defs><defs><path id="b" d="M2.157 11.076v.002c1.113.972 2.567 1.562 4.16 1.562s3.048-.59 4.16-1.562l.002-.002-.004.002c.99-1.01-2.273-4.587-4.16-6.014-1.886 1.427-5.15 5.005-4.16 6.014"/></defs><defs><path id="c" d="M1.885 1.82l-.006.006C.72 2.972 0 4.562 0 6.322c0 1.503.525 2.884 1.402 3.968-.74-1.368 1.882-5.24 3.2-6.8-2.158-2.153-2.73-1.658-2.722-1.664"/></defs><defs><path id="d" d="M6.32 0c1.23 0 2.425.34 3.563 1.1-.037-.024-.326-.197-.802-.18-1.21.043-2.76.948-2.76.948v.002l-.003-.002S4.767.963 3.557.92c-.477-.017-.767.156-.8.18C3.89.34 5.086 0 6.314 0h.005z"/></defs><use xlink:href="#a" overflow="visible" fill="#231F20"/><use xlink:href="#b" overflow="visible" fill="#231F20"/><use xlink:href="#c" overflow="visible" fill="#231F20"/><use xlink:href="#d" overflow="visible" fill="#231F20"/><clipPath id="e"><use xlink:href="#a" overflow="visible"/></clipPath><clipPath id="f" clip-path="url(#e)"><use xlink:href="#b" overflow="visible"/></clipPath><clipPath id="g" clip-path="url(#f)"><use xlink:href="#c" overflow="visible"/></clipPath><clipPath id="h" clip-path="url(#g)"><use xlink:href="#d" overflow="visible"/></clipPath><circle clip-path="url(#h)" fill="#231F20" cx="6.257" cy="6.264" r="6.547"/><g clip-path="url(#h)"><defs><path id="i" d="M2.79 1.564c-.118-.06-.288-.118-.388-.14-.007 0-.012-.002-.018-.003-.056-.01-.11-.002-.158 0-.055.006-.117.065-.163.08C.763 2.664-.074 4.397-.074 6.28c0 1.55.625 3.052 1.57 4.162-.383-.5.158-1.976.535-2.838.187-.424.426-.787.677-1.194.964-1.564 2.392-3 2.392-3-.84-.92-1.887-1.614-2.308-1.846zm8.2 8.9c0-.037-.005-.073-.01-.11-.106-.936-1.12-2.2-2.218-3.387C7.768 5.892 6.806 5.11 6.28 4.665c-.005.002-.008.005-.01.007-.312.225-1.455 1.2-2.45 2.278-1.135 1.23-2.18 2.592-2.217 3.49v.098c.002.007.007.035.01.042 0 .025.03.053.038.06 1.165 1.234 2.83 2.008 4.635 2.008 1.858 0 3.553-.79 4.714-2.062 0-.01-.008-.038-.008-.047.003-.027 0-.05 0-.077zm1.665-4.18c0-1.893-.842-3.6-2.157-4.762-.036-.01-.075-.017-.115-.02-.048-.002-.1.003-.153.015l-.027.005-.034.008c-.51.174-1.55.916-2.45 1.875 0 0 1.163 1.397 2.16 2.95.257.4.48.856.69 1.27.534 1.04.957 2.322.543 2.88.938-1.105 1.54-2.656 1.54-4.22z"/></defs><use xlink:href="#i" overflow="visible" fill="#231F20"/><clipPath id="j"><use xlink:href="#i" overflow="visible"/></clipPath><g opacity=".36" clip-path="url(#j)"><circle fill="#231F20" cx="6.293" cy="6.203" r="6.716"/></g><defs><filter id="k" filterUnits="userSpaceOnUse" x="1.511" y=".679" width="9.487" height="11.97"><feColorMatrix values="1 0 0 0 0 0 1 0 0 0 0 0 1 0 0 0 0 0 1 0"/></filter></defs><mask maskUnits="userSpaceOnUse" x="1.511" y=".679" width="9.487" height="11.97" id="m"><g filter="url(#k)"><linearGradient id="l" gradientUnits="userSpaceOnUse" x1="3.135" y1="6.114" x2="6.649" y2="6.114"><stop offset="0" stop-color="#FFF"/><stop offset="1"/></linearGradient><path fill="url(#l)" d="M3.03 3.624h5.522v4.98h-5.52z"/></g></mask><g opacity=".8" mask="url(#m)"><defs><path id="n" opacity=".8" d="M10.99 10.464c0-.037-.005-.073-.01-.11-.116-.955-1.12-2.2-2.218-3.387C7.768 5.892 6.806 5.11 6.28 4.665c-.005.002-.008.005-.01.007-.312.225-1.455 1.2-2.45 2.278-1.135 1.23-2.18 2.592-2.217 3.49v.098l.01.05c0 .01.027.042.033.05 1.165 1.236 2.83 2.01 4.637 2.01 1.858 0 3.553-.79 4.714-2.062 0-.01-.007-.038-.007-.047.003-.027 0-.05 0-.077z"/></defs><use xlink:href="#n" overflow="visible" fill="#231F20"/><clipPath id="o"><use xlink:href="#n" overflow="visible"/></clipPath><circle clip-path="url(#o)" fill="#231F20" cx="4.823" cy="3.991" r="3.312"/></g><defs><filter id="p" filterUnits="userSpaceOnUse" x="-.423" y="-.513" width="13.433" height="13.433"><feColorMatrix values="1 0 0 0 0 0 1 0 0 0 0 0 1 0 0 0 0 0 1 0"/></filter></defs><mask maskUnits="userSpaceOnUse" x="-.423" y="-.513" width="13.433" height="13.433" id="r"><g filter="url(#p)"><radialGradient id="q" cx="4.545" cy="3.39" r="10.241" gradientUnits="userSpaceOnUse"><stop offset=".175" stop-color="#FFF"/><stop offset=".249" stop-color="#CDCDCD"/><stop offset=".364" stop-color="#858585"/><stop offset=".469" stop-color="#4C4C4C"/><stop offset=".557" stop-color="#232323"/><stop offset=".627" stop-color="#090909"/><stop offset=".669"/></radialGradient><path fill="url(#q)" d="M-1.275-1.592h16.857v15.626H-1.275z"/></g></mask><g opacity=".9" mask="url(#r)"><defs><path id="s" opacity=".9" d="M2.79 1.564c-.118-.06-.288-.118-.388-.14-.007 0-.012-.002-.018-.003-.056-.01-.11-.002-.158 0-.055.006-.117.065-.163.08C.763 2.664-.074 4.397-.074 6.28c0 1.55.625 3.052 1.57 4.162-.383-.5.178-2.038.535-2.838.19-.423.426-.787.677-1.194.964-1.564 2.392-3 2.392-3-.84-.92-1.887-1.614-2.308-1.846zm8.2 8.9c0-.037-.004-.074-.01-.11-.13-.97-1.12-2.2-2.218-3.387C7.768 5.892 6.806 5.11 6.28 4.665c-.005.002-.008.005-.01.007-.312.225-1.455 1.2-2.45 2.278-1.135 1.23-2.18 2.592-2.217 3.49v.098c.002.007.007.035.01.042 0 .025.03.053.038.06 1.165 1.234 2.83 2.008 4.635 2.008 1.858 0 3.553-.79 4.714-2.062 0-.01-.008-.038-.008-.047.003-.027 0-.05 0-.077zm1.665-4.18c0-1.893-.842-3.6-2.157-4.762-.036-.01-.075-.017-.115-.02-.048-.002-.1.003-.153.015l-.027.005-.034.008c-.51.174-1.55.916-2.45 1.875 0 0 1.163 1.397 2.16 2.95.257.4.48.856.69 1.27.534 1.04.957 2.322.543 2.88.938-1.105 1.54-2.656 1.54-4.22z"/></defs><use xlink:href="#s" overflow="visible" fill="#231F20"/><clipPath id="t"><use xlink:href="#s" overflow="visible"/></clipPath><g clip-path="url(#t)"><circle fill="#231F20" cx="6.293" cy="6.203" r="6.716"/></g></g><defs><path id="u" d="M2.79 1.564c-.118-.06-.288-.118-.388-.14-.007 0-.012-.002-.018-.003-.056-.01-.11-.002-.158 0-.055.006-.117.065-.163.08C.763 2.664-.074 4.397-.074 6.28c0 1.55.625 3.052 1.57 4.162-.383-.5.158-1.97.535-2.838.186-.425.426-.787.677-1.194.964-1.564 2.392-3 2.392-3-.84-.92-1.887-1.614-2.308-1.846z"/></defs><use xlink:href="#u" overflow="visible" fill="#231F20"/><clipPath id="w"><use xlink:href="#u" overflow="visible"/></clipPath><defs><filter id="v" filterUnits="userSpaceOnUse" x="-.146" y="-.085" width="12.85" height="12.823"><feColorMatrix values="1 0 0 0 0 0 1 0 0 0 0 0 1 0 0 0 0 0 1 0"/></filter></defs><mask maskUnits="userSpaceOnUse" x="-.146" y="-.085" width="12.85" height="12.823" id="y"><g filter="url(#v)"><linearGradient id="x" gradientUnits="userSpaceOnUse" x1="6.021" y1=".277" x2="6.021" y2="9.943"><stop offset=".337" stop-color="#FFF"/><stop offset=".35" stop-color="#F3F3F3"/><stop offset=".425" stop-color="#B4B4B4"/><stop offset=".499" stop-color="#7D7D7D"/><stop offset=".571" stop-color="#505050"/><stop offset=".639" stop-color="#2D2D2D"/><stop offset=".703" stop-color="#141414"/><stop offset=".761" stop-color="#050505"/><stop offset=".809"/></linearGradient><path clip-path="url(#w)" fill="url(#x)" d="M-.062-.44h12.166v11.292H-.062z"/></g></mask><path clip-path="url(#w)" mask="url(#y)" fill="#231F20" d="M12.704 6.245c0 4.7-3.885 6.493-6.745 6.493-2.86 0-6.106-2.507-6.106-6.344 0-3.91 3.32-6.48 6.18-6.48s6.67 1.806 6.67 6.33z"/><g opacity=".9"><defs><path id="z" opacity=".9" d="M2.79 1.564c-.118-.06-.288-.118-.388-.14-.007 0-.012-.002-.018-.003-.056-.01-.11-.002-.158 0-.055.006-.117.065-.163.08C.763 2.664-.074 4.397-.074 6.28c0 1.55.625 3.052 1.57 4.162-.383-.5.158-2 .535-2.838.19-.422.426-.787.677-1.194.964-1.564 2.392-3 2.392-3-.84-.92-1.887-1.614-2.308-1.846z"/></defs><use xlink:href="#z" overflow="visible" fill="#231F20"/><clipPath id="A"><use xlink:href="#z" overflow="visible"/></clipPath><path clip-path="url(#A)" fill="#231F20" d="M8.135 3.99c0 1.83-4.357 7.02-6.187 7.02s-2.32-3.524-2.32-5.354S.672 1.494 2.5 1.494c1.832 0 5.637.668 5.637 2.497z"/></g><defs><filter id="B" filterUnits="userSpaceOnUse" x="-.423" y="-.513" width="13.433" height="13.433"><feColorMatrix values="1 0 0 0 0 0 1 0 0 0 0 0 1 0 0 0 0 0 1 0"/></filter></defs><mask maskUnits="userSpaceOnUse" x="-.423" y="-.513" width="13.433" height="13.433" id="D"><g filter="url(#B)"><linearGradient id="C" gradientUnits="userSpaceOnUse" x1="13.994" y1="13.155" x2=".834" y2=".493"><stop offset=".29" stop-color="#FFF"/><stop offset=".796"/></linearGradient><path fill="url(#C)" d="M-.698-1.146h14.263v14.05H-.698z"/></g></mask><g opacity=".8" mask="url(#D)"><defs><path id="E" opacity=".8" d="M2.79 1.564c-.118-.06-.288-.118-.388-.14-.007 0-.012-.002-.018-.003-.056-.01-.11-.002-.158 0-.055.006-.117.065-.163.08C.763 2.664-.074 4.397-.074 6.28c0 1.55.625 3.052 1.57 4.162-.383-.5.195-2.1.535-2.838.196-.42.426-.787.677-1.194.964-1.564 2.392-3 2.392-3-.84-.92-1.887-1.614-2.308-1.846zm8.2 8.9c0-.037-.005-.073-.01-.11-.11-.933-1.12-2.2-2.218-3.387C7.768 5.892 6.806 5.11 6.28 4.665c-.005.002-.008.005-.01.007-.312.225-1.455 1.2-2.45 2.278-1.135 1.23-2.18 2.592-2.217 3.49v.098c.002.007.007.035.01.042 0 .025.03.053.038.06 1.165 1.234 2.83 2.008 4.635 2.008 1.858 0 3.553-.79 4.714-2.062 0-.01-.008-.038-.008-.047.003-.027 0-.05 0-.077zm1.665-4.18c0-1.893-.842-3.6-2.157-4.762-.036-.01-.075-.017-.115-.02-.048-.002-.1.003-.153.015l-.027.005-.034.008c-.51.174-1.55.916-2.45 1.875 0 0 1.163 1.397 2.16 2.95.257.4.48.856.69 1.27.534 1.04.957 2.322.543 2.88.938-1.105 1.54-2.656 1.54-4.22z"/></defs><use xlink:href="#E" overflow="visible" fill="#231F20"/><clipPath id="F"><use xlink:href="#E" overflow="visible"/></clipPath><g clip-path="url(#F)"><circle fill="#231F20" cx="6.293" cy="6.203" r="6.716"/></g></g><defs><path id="G" d="M10.094 1.23c-.073-.043-.424-.153-.528-.174-.46-.09-.994.006-1.474.2-.755.305-1.466.71-1.744.886-.265-.17-1.027-.505-1.788-.796-.56-.212-1.18-.324-1.53-.244-.125.03-.41.03-.49.082C3.564.477 4.997-.062 6.336-.062c1.328 0 2.816.506 3.758 1.29z"/></defs><use xlink:href="#G" overflow="visible" fill="#231F20"/><clipPath id="H"><use xlink:href="#G" overflow="visible"/></clipPath><g clip-path="url(#H)"><circle fill="#231F20" cx="6.293" cy="6.203" r="6.716"/></g><defs><path id="I" d="M10.094 1.23c-.073-.043-.47-.16-.574-.182-.46-.09-.97.018-1.45.214-.756.304-1.467.712-1.745.885-.266-.17-1-.514-1.76-.806-.56-.21-1.218-.312-1.565-.233-.127.03-.382.02-.464.073C3.56.47 4.974-.058 6.312-.058c1.33 0 2.792.487 3.782 1.286z"/></defs><use xlink:href="#I" overflow="visible" fill="#231F20"/><clipPath id="J"><use xlink:href="#I" overflow="visible"/></clipPath><circle clip-path="url(#J)" fill="#231F20" cx="4.823" cy="3.991" r="3.312"/><defs><filter id="K" filterUnits="userSpaceOnUse" x="-.074" y="1.415" width="5.172" height="9.028"><feColorMatrix values="1 0 0 0 0 0 1 0 0 0 0 0 1 0 0 0 0 0 1 0"/></filter></defs><mask maskUnits="userSpaceOnUse" x="-.074" y="1.415" width="5.172" height="9.028" id="M"><g filter="url(#K)"><linearGradient id="L" gradientUnits="userSpaceOnUse" x1="3.601" y1="5.5" x2="-1.956" y2="5.5"><stop offset="0" stop-color="#FFF"/><stop offset=".291" stop-color="#A5A5A5"/><stop offset=".545" stop-color="#5F5F5F"/><stop offset=".755" stop-color="#2B2B2B"/><stop offset=".912" stop-color="#0C0C0C"/><stop offset="1"/></linearGradient><path fill="url(#L)" d="M-1.642.323h6.868v10.355h-6.868z"/></g></mask><path mask="url(#M)" fill="#231F20" d="M2.79 1.564c-.118-.06-.288-.118-.388-.14-.007 0-.012-.002-.018-.003-.056-.01-.11-.002-.158 0-.055.006-.117.065-.163.08C.763 2.664-.074 4.397-.074 6.28c0 1.55.625 3.052 1.57 4.162-.383-.5.225-2.254.535-2.838.218-.41.426-.787.677-1.194.964-1.564 2.392-3 2.392-3-.84-.92-1.887-1.614-2.308-1.846z"/><defs><filter id="N" filterUnits="userSpaceOnUse" x="7.72" y="1.503" width="4.935" height="9.004"><feColorMatrix values="1 0 0 0 0 0 1 0 0 0 0 0 1 0 0 0 0 0 1 0"/></filter></defs><mask maskUnits="userSpaceOnUse" x="7.72" y="1.503" width="4.935" height="9.004" id="P"><g filter="url(#N)"><radialGradient id="O" cx="8.609" cy="3.39" r="8.605" gradientUnits="userSpaceOnUse"><stop offset=".367" stop-color="#FFF"/><stop offset=".41" stop-color="#C6C6C6"/><stop offset=".467" stop-color="gray"/><stop offset=".518" stop-color="#494949"/><stop offset=".562" stop-color="#212121"/><stop offset=".597" stop-color="#090909"/><stop offset=".618"/></radialGradient><path fill="url(#O)" d="M6.59.48h7.288v10.25H6.59z"/></g></mask><path mask="url(#P)" fill="#231F20" d="M12.655 6.284c0-1.893-.842-3.6-2.157-4.762-.036-.01-.075-.017-.115-.02-.048-.002-.1.003-.153.015l-.027.005-.034.008c-.51.174-1.55.916-2.45 1.875 0 0 1.163 1.397 2.16 2.95.257.4.48.856.69 1.27.534 1.04.957 2.322.543 2.88.938-1.105 1.54-2.656 1.54-4.22z"/><defs><filter id="Q" filterUnits="userSpaceOnUse" x="7.72" y="1.503" width="4.935" height="9.004"><feColorMatrix values="1 0 0 0 0 0 1 0 0 0 0 0 1 0 0 0 0 0 1 0"/></filter></defs><mask maskUnits="userSpaceOnUse" x="7.72" y="1.503" width="4.935" height="9.004" id="S"><g filter="url(#Q)"><radialGradient id="R" cx="8.1" cy="3.196" r="9.026" gradientUnits="userSpaceOnUse"><stop offset="0" stop-color="#FFF"/><stop offset=".453"/></radialGradient><path fill="url(#R)" d="M6.842-.335h7.272v11.537H6.842z"/></g></mask><path mask="url(#S)" fill="#231F20" d="M12.655 6.284c0-1.893-.842-3.6-2.157-4.762-.036-.01-.075-.017-.115-.02-.048-.002-.1.003-.153.015l-.027.005-.034.008c-.51.174-1.55.916-2.45 1.875 0 0 1.163 1.397 2.16 2.95.257.4.48.856.69 1.27.534 1.04.957 2.322.543 2.88.938-1.105 1.54-2.656 1.54-4.22z"/><defs><path id="T" d="M10.99 10.464c0-.037-.005-.073-.01-.11-.113-.938-1.12-2.2-2.218-3.387C7.768 5.892 6.806 5.11 6.28 4.665c-.005.002-.008.005-.01.007-.312.225-1.455 1.2-2.45 2.278-1.135 1.23-2.18 2.592-2.217 3.49v.098c.002.012.01.044.01.055 0 .008.026.036.033.042 1.164 1.238 2.83 2.013 4.637 2.013 1.858 0 3.553-.79 4.714-2.062 0-.01-.007-.038-.007-.047.003-.027 0-.05 0-.077z"/></defs><use xlink:href="#T" overflow="visible" fill="#231F20"/><clipPath id="V"><use xlink:href="#T" overflow="visible"/></clipPath><defs><filter id="U" filterUnits="userSpaceOnUse" x="-.193" y="-.186" width="12.899" height="12.898"><feColorMatrix values="1 0 0 0 0 0 1 0 0 0 0 0 1 0 0 0 0 0 1 0"/></filter></defs><mask maskUnits="userSpaceOnUse" x="-.193" y="-.186" width="12.899" height="12.898" id="Y"><g filter="url(#U)"><radialGradient id="W" cx="3.809" cy="2.796" r="15.131" gradientUnits="userSpaceOnUse"><stop offset=".263"/><stop offset=".308" stop-color="#393939"/><stop offset=".368" stop-color="#7F7F7F"/><stop offset=".422" stop-color="#B6B6B6"/><stop offset=".468" stop-color="#DEDEDE"/><stop offset=".504" stop-color="#F6F6F6"/><stop offset=".527" stop-color="#FFF"/><stop offset=".545" stop-color="#F4F4F4"/><stop offset=".578" stop-color="#D5D5D5"/><stop offset=".621" stop-color="#A4A4A4"/><stop offset=".674" stop-color="#606060"/><stop offset=".733" stop-color="#0A0A0A"/><stop offset=".74"/></radialGradient><path clip-path="url(#V)" fill="url(#W)" d="M-.804-1.024h14.77v14.132H-.804z"/><path clip-path="url(#V)" fill="none" d="M10.978 10.46c0-.034-.004-.07-.007-.106-.104-.894-1.186-2.147-2.284-3.336-.995-1.074-1.86-1.764-2.39-2.21 0 .002-.004.004-.007.006-.313.226-1.37 1.116-2.364 2.194C2.79 8.238 1.67 9.542 1.632 10.44v.022c0 .026.002.052.005.077.002.02.004.04.01.057 1.164 1.248 2.82 2.035 4.636 2.035 1.858 0 3.53-.796 4.692-2.065v-.03c.004-.024.004-.05.003-.077z"/><linearGradient id="X" gradientUnits="userSpaceOnUse" x1="-.804" y1="6.042" x2="13.966" y2="6.042"><stop offset="0" stop-color="#FFF"/><stop offset=".077" stop-color="#DEDEDE"/><stop offset=".268" stop-color="#909090"/><stop offset=".439" stop-color="#525252"/><stop offset=".582" stop-color="#262626"/><stop offset=".693" stop-color="#0A0A0A"/><stop offset=".757"/></linearGradient><path clip-path="url(#V)" fill="url(#X)" d="M-.804-1.024h14.77v14.132H-.804z"/></g></mask><circle clip-path="url(#V)" mask="url(#Y)" fill="#231F20" cx="6.256" cy="6.264" r="6.45"/><g opacity=".85"><defs><path id="Z" opacity=".85" d="M12.655 6.284c0-1.893-.842-3.6-2.157-4.762-.036-.01-.075-.017-.115-.02-.048-.002-.1.003-.153.015l-.027.005-.034.008c-.51.174-1.55.916-2.45 1.875 0 0 1.136 1.356 2.13 2.906.26.404.498.883.71 1.296.534 1.042.968 2.334.555 2.893.94-1.107 1.54-2.65 1.54-4.215z"/></defs><use xlink:href="#Z" overflow="visible" fill="#231F20"/><clipPath id="ab"><use xlink:href="#Z" overflow="visible"/></clipPath><defs><filter id="aa" filterUnits="userSpaceOnUse" x="2.796" y="-.863" width="11.885" height="12.935"><feColorMatrix values="1 0 0 0 0 0 1 0 0 0 0 0 1 0 0 0 0 0 1 0"/></filter></defs><mask maskUnits="userSpaceOnUse" x="2.796" y="-.863" width="11.885" height="12.935" id="af"><g filter="url(#aa)"><radialGradient id="ac" cx="16.398" cy="-41.47" r="5.13" gradientTransform="matrix(.944 0 0 1.22 -6.658 55.295)" gradientUnits="userSpaceOnUse"><stop offset=".411"/><stop offset=".734" stop-color="#CCC"/><stop offset=".969"/></radialGradient><path clip-path="url(#ab)" fill="url(#ac)" d="M3.767-.58h9.88v12.768h-9.88z"/><linearGradient id="ad" gradientUnits="userSpaceOnUse" x1="11.043" y1="-40.574" x2="21.509" y2="-40.574" gradientTransform="matrix(.944 0 0 1.22 -6.658 55.295)"><stop offset=".456"/><stop offset=".483" stop-color="#030303"/><stop offset=".501" stop-color="#0B0B0B"/><stop offset=".516" stop-color="#1A1A1A"/><stop offset=".53" stop-color="#303030"/><stop offset=".543" stop-color="#4B4B4B"/><stop offset=".555" stop-color="#6D6D6D"/><stop offset=".566" stop-color="#959595"/><stop offset=".577" stop-color="#C3C3C3"/><stop offset=".587" stop-color="#F7F7F7"/><stop offset=".589" stop-color="#FFF"/><stop offset=".683" stop-color="#FFF"/><stop offset=".976"/></linearGradient><path clip-path="url(#ab)" fill="url(#ad)" d="M3.767-.58h9.88v12.768h-9.88z"/><linearGradient id="ae" gradientUnits="userSpaceOnUse" x1="8.74" y1="4.801" x2="8.74" y2="8.718"><stop offset=".145" stop-color="#FFF"/><stop offset="1"/></linearGradient><path clip-path="url(#ab)" fill="url(#ae)" d="M3.746 4.533h9.988v5.978H3.746z"/></g></mask><path clip-path="url(#ab)" mask="url(#af)" fill="#231F20" d="M2.796-.863H14.68v12.935H2.797z"/></g><defs><filter id="ag" filterUnits="userSpaceOnUse" x="-1.937" y="-3.149" width="16.329" height="16.146"><feColorMatrix values="1 0 0 0 0 0 1 0 0 0 0 0 1 0 0 0 0 0 1 0"/></filter></defs><mask maskUnits="userSpaceOnUse" x="-1.937" y="-3.149" width="16.329" height="16.146" id="ai"><g filter="url(#ag)"><radialGradient id="ah" cx="4.64" cy="3.056" r="7.949" gradientUnits="userSpaceOnUse"><stop offset=".536"/><stop offset=".603" stop-color="#060606"/><stop offset=".687" stop-color="#151515"/><stop offset=".762" stop-color="#2A2A2A"/><stop offset=".824" stop-color="#ADADAD"/><stop offset=".916" stop-color="#FFF"/></radialGradient><path fill="url(#ah)" stroke="#231F20" stroke-width=".113" d="M-.254-.506h13.18v13.314H-.254z"/></g></mask><g opacity=".15" mask="url(#ai)"><defs><path id="aj" opacity=".15" d="M2.782 1.562c-.12-.06-.24-.105-.338-.127l-.06-.016c-.057-.014-.11-.004-.16 0-.053.004-.11.06-.157.074-1.3 1.163-2.14 2.9-2.14 4.785 0 1.55.624 3.05 1.57 4.16-.384-.5.307-2.375.503-2.78.2-.417.464-.856.715-1.264C3.68 4.833 5.1 3.41 5.1 3.41c-.84-.92-1.897-1.617-2.318-1.848zm8.208 8.897l-.01-.123c-.106-.895-1.075-2.137-2.174-3.325-.994-1.074-1.955-1.86-2.482-2.308l-.046.008c-.004.002-.042-.018-.045-.016-.31.227-1.38 1.135-2.375 2.212C2.72 8.14 1.65 9.488 1.61 10.388l-.003.06c0 .027-.004.045-.002.07 0 .01 0 .04.002.05 0 .015.027.055.033.06 1.165 1.237 2.836 2.02 4.644 2.02 1.858 0 3.553-.79 4.714-2.06 0-.01-.008-.05-.008-.06.002-.027 0-.043 0-.07z"/></defs><use xlink:href="#aj" overflow="visible" fill="#231F20"/><clipPath id="ak"><use xlink:href="#aj" overflow="visible"/></clipPath><ellipse clip-path="url(#ak)" fill="#231F20" cx="6.228" cy="4.924" rx="8.165" ry="8.073"/></g><g opacity=".75"><defs><path id="al" opacity=".75" d="M10.094 1.23c-.073-.043-.444-.158-.548-.178-.46-.09-1.082.064-1.563.26-.754.304-1.374.688-1.652.863l-.057-.008c-.265-.17-.99-.552-1.753-.844-.56-.213-1.29-.278-1.637-.197-.127.028-.28.008-.358.065C3.635.36 4.945-.073 6.283-.073c1.33 0 2.846.47 3.81 1.304z"/></defs><use xlink:href="#al" overflow="visible" fill="#231F20"/><clipPath id="am"><use xlink:href="#al" overflow="visible"/></clipPath><g opacity=".62" clip-path="url(#am)"><ellipse fill="#231F20" cx="5.813" cy="2.13" rx="5.073" ry="3.047"/></g></g><g opacity=".5"><circle fill="#231F20" cx="6.302" cy="6.308" r="6.375"/><defs><filter id="an" filterUnits="userSpaceOnUse" x="-.074" y="-.067" width="12.751" height="12.751"><feColorMatrix values="-1 0 0 0 1 0 -1 0 0 1 0 0 -1 0 1 0 0 0 1 0" color-interpolation-filters="sRGB" result="source"/></filter></defs><mask maskUnits="userSpaceOnUse" x="-.074" y="-.067" width="12.751" height="12.751" id="ao"><image overflow="visible" width="70" height="70" xlink:href="8F9DA2DCDFC79695.jpg" transform="matrix(.24 0 0 .24 -2.074 -2.067)" filter="url(#an)"/></mask><circle fill="#FFF" cx="6.302" cy="6.308" r="6.375" opacity=".65" mask="url(#ao)"/></g></g><path fill="#231F20" d="M56.393 2.615v6.233l-4.59-6.238h-.755v7.587h.846V4.103l4.498 6.1h.845V2.616M46.66 2.438c-2.135 0-3.627 1.633-3.627 3.97 0 2.34 1.492 3.97 3.626 3.97 2.13 0 3.616-1.63 3.616-3.97 0-2.337-1.486-3.97-3.618-3.97zm0 7.137c-1.627 0-2.766-1.304-2.766-3.168 0-1.863 1.14-3.167 2.765-3.167 1.62 0 2.754 1.304 2.754 3.167 0 1.864-1.133 3.168-2.756 3.168zm12.378-.115V6.654h4.178V5.91h-4.178V3.354H63.5V2.61h-5.313v7.594h5.366V9.46"/></svg>